<?xml version="1.0" encoding="UTF-8"?><svg id="Layer_1" xmlns="http://www.w3.org/2000/svg" viewBox="0 0 179.363 63.628"><defs><style>.cls-1{fill:#ffdc00;}.cls-1,.cls-2{stroke-width:0px;}.cls-2{fill:#010101;}</style></defs><path class="cls-2" d="m55.72,23.42h-4.564l-6.634,16.996h4.657l1.165-2.904h6.039l1.098,2.904h4.679l-6.44-16.996Zm-4.166,10.773l1.814-5.442h.045l1.792,5.442h-3.651Z"/><path class="cls-2" d="m38.374,23.407h-6.716v17.01h4.564v-5.808h2.308c3.829,0,5.979-1.664,5.979-5.648,0-3.873-2.508-5.553-6.135-5.553Zm-1.591,7.883h-.561v-4.159h.561c1.704,0,3.159-.032,3.159,2.096,0,2.063-1.568,2.063-3.159,2.063Z"/><polygon class="cls-2" points="124.172 33.779 128.735 33.788 128.735 30.045 124.172 30.045 124.172 27.141 130.395 27.141 130.395 23.407 119.608 23.407 119.608 40.416 130.395 40.416 130.395 36.268 124.172 36.268 124.172 33.779"/><polygon class="cls-2" points="84.345 27.97 88.494 27.97 88.519 40.416 93.057 40.416 93.057 27.97 97.206 27.97 97.206 23.407 84.345 23.407 84.345 27.97"/><polygon class="cls-2" points="111.311 30.045 105.088 30.045 105.088 23.407 100.525 23.407 100.525 40.416 105.088 40.416 105.088 33.779 111.311 33.779 111.311 40.416 115.874 40.416 115.874 23.407 111.311 23.407 111.311 30.045"/><path class="cls-2" d="m141.388,27.97c2.177,0,3.942,1.764,3.943,3.941,0,2.177-1.764,3.942-3.941,3.943-2.177,0-3.942-1.764-3.943-3.941h0c.005-2.175,1.766-3.937,3.941-3.943m0-4.564c-4.697,0-8.506,3.807-8.506,8.504,0,4.697,3.807,8.506,8.504,8.506,4.697,0,8.506-3.807,8.506-8.504h0c0-4.698-3.806-8.506-8.503-8.506h-.001Z"/><polygon class="cls-2" points="164.811 32.933 157.503 23.407 153.211 23.407 153.211 40.416 157.79 40.416 157.775 30.874 164.759 40.416 169.391 40.416 169.391 23.407 164.828 23.407 164.811 32.933"/><polygon class="cls-2" points="76.446 32.933 69.137 23.407 64.846 23.407 64.846 40.416 69.424 40.416 69.41 30.874 76.395 40.416 81.026 40.416 81.026 23.407 76.463 23.407 76.446 32.933"/><polygon class="cls-1" points="7.111 6.372 11.677 17.376 5.865 17.376 7.787 22.219 19.566 22.219 7.111 6.372"/><polygon class="cls-1" points="22.598 46.436 20.654 41.592 17.958 41.592 12.352 27.968 9.937 27.968 15.539 41.592 8.69 41.592 21.352 57.442 16.787 46.436 22.598 46.436"/><path class="cls-2" d="m24.167,27.065c.142,0,.475-.182.475-1.865s-.333-1.862-.475-1.862h-8.11l1.54,3.728h6.57Z"/><path class="cls-2" d="m19.439,31.536h5.452c.145,0,.476-.182.476-1.864s-.332-1.863-.476-1.863h-6.991l1.54,3.728Z"/><path class="cls-2" d="m24.167,36.749h-7.331l1.54,3.728h5.792c.142,0,.475-.181.475-1.863s-.333-1.864-.475-1.864Z"/><path class="cls-2" d="m24.891,32.278h-9.902l1.54,3.729h8.362c.145,0,.476-.183.476-1.863s-.332-1.865-.476-1.865Z"/><path class="cls-2" d="m24.167,36.749h-7.331l1.54,3.728h5.792c.142,0,.475-.181.475-1.863s-.333-1.864-.475-1.864Z"/><path class="cls-2" d="m24.891,32.278h-9.902l1.54,3.729h8.362c.145,0,.476-.183.476-1.863s-.332-1.865-.476-1.865Z"/><path class="cls-2" d="m10.504,31.564l-1.743-4.501h4.069l1.881,4.507,3.887-.034-3.387-8.199H6.76c-.652,0-1.01,0-1.303.97-.352,1.158-.393,3.344-.393,7.599s.041,6.447.393,7.599c.293.97.651.97,1.303.97h7.418l-3.676-8.942.002.031Z"/><path class="cls-2" d="m172.294,23.591h-.544v-.348h1.531v.348h-.544v1.587h-.443v-1.587Zm2.096,1.587l-.489-1.481v1.481h-.388v-1.934h.589l.479,1.491.478-1.491h.569v1.934h-.403v-1.481l-.474,1.481h-.363Z"/></svg>